<svg width="16" height="16" viewBox="0 0 16 16" fill="none" xmlns="http://www.w3.org/2000/svg">
<path d="M13.9998 4.44352C13.8822 4.50447 13.7451 4.51619 13.6187 4.47611C13.4924 4.43603 13.3871 4.34742 13.3261 4.22977C12.8488 3.28695 12.1265 2.49008 11.2348 1.9229C11.1793 1.88785 11.1312 1.8422 11.0932 1.78856C11.0553 1.73492 11.0283 1.67433 11.0138 1.61026C10.9993 1.54618 10.9976 1.47988 11.0087 1.41513C11.0198 1.35039 11.0436 1.28846 11.0786 1.2329C11.1136 1.17733 11.1593 1.12921 11.2129 1.09129C11.2666 1.05336 11.3272 1.02638 11.3912 1.01187C11.4553 0.997358 11.5216 0.995611 11.5864 1.00673C11.6511 1.01784 11.713 1.0416 11.7686 1.07665C12.8077 1.74198 13.6515 2.67137 14.2136 3.76977C14.2745 3.88747 14.2863 4.02455 14.2462 4.15089C14.2061 4.27723 14.1175 4.38248 13.9998 4.44352ZM2.23172 4.49977C2.32333 4.49973 2.41316 4.47453 2.49141 4.42692C2.56967 4.3793 2.63334 4.31111 2.67547 4.22977C3.15273 3.28695 3.87511 2.49008 4.76672 1.9229C4.87894 1.85212 4.95845 1.73966 4.98775 1.61026C5.01706 1.48086 4.99375 1.34512 4.92297 1.2329C4.85219 1.12068 4.73973 1.04117 4.61033 1.01187C4.48093 0.982564 4.34519 1.00587 4.23297 1.07665C3.19385 1.74198 2.35009 2.67137 1.78797 3.76977C1.7485 3.84597 1.7293 3.93105 1.73222 4.01682C1.73515 4.10258 1.7601 4.18616 1.80468 4.25949C1.84926 4.33282 1.91196 4.39345 1.98675 4.43553C2.06154 4.47761 2.14591 4.49973 2.23172 4.49977ZM13.863 10.996C13.9516 11.1479 13.9985 11.3205 13.9991 11.4963C13.9997 11.6722 13.9539 11.8451 13.8664 11.9976C13.7789 12.1501 13.6527 12.2768 13.5005 12.365C13.3484 12.4531 13.1757 12.4996 12.9998 12.4998H10.4498C10.3351 13.0649 10.0285 13.573 9.58198 13.938C9.13547 14.3029 8.57653 14.5023 7.99985 14.5023C7.42317 14.5023 6.86423 14.3029 6.41772 13.938C5.97121 13.573 5.66461 13.0649 5.54985 12.4998H2.99985C2.82411 12.4994 2.65157 12.4528 2.4996 12.3645C2.34764 12.2763 2.22161 12.1495 2.13422 11.997C2.04684 11.8446 2.00117 11.6718 2.00183 11.496C2.00249 11.3203 2.04945 11.1478 2.13797 10.996C2.7011 10.0241 2.99985 8.64227 2.99985 6.99977C2.99985 5.67369 3.52663 4.40192 4.46432 3.46424C5.402 2.52655 6.67377 1.99977 7.99985 1.99977C9.32593 1.99977 10.5977 2.52655 11.5354 3.46424C12.4731 4.40192 12.9998 5.67369 12.9998 6.99977C12.9998 8.64165 13.2986 10.0235 13.863 10.996ZM9.4136 12.4998H6.5861C6.68969 12.7919 6.88123 13.0448 7.13439 13.2236C7.38755 13.4024 7.68989 13.4985 7.99985 13.4985C8.3098 13.4985 8.61215 13.4024 8.86531 13.2236C9.11847 13.0448 9.31001 12.7919 9.4136 12.4998ZM12.9998 11.4998C12.3348 10.3579 11.9998 8.84415 11.9998 6.99977C11.9998 5.9389 11.5784 4.92149 10.8283 4.17134C10.0781 3.4212 9.06072 2.99977 7.99985 2.99977C6.93898 2.99977 5.92157 3.4212 5.17142 4.17134C4.42128 4.92149 3.99985 5.9389 3.99985 6.99977C3.99985 8.84477 3.6636 10.3585 2.99985 11.4998H12.9998Z" fill="white"/>
</svg>
