<svg width="24" height="24" viewBox="0 0 24 24" fill="none" xmlns="http://www.w3.org/2000/svg">
<path d="M19.8366 8.43697L10.2366 18.037C10.153 18.1209 10.0537 18.1875 9.94426 18.2329C9.83486 18.2783 9.71757 18.3017 9.59912 18.3017C9.48067 18.3017 9.36338 18.2783 9.25398 18.2329C9.14459 18.1875 9.04523 18.1209 8.96162 18.037L4.76162 13.837C4.6779 13.7533 4.61149 13.6539 4.56619 13.5445C4.52088 13.4351 4.49756 13.3179 4.49756 13.1995C4.49756 13.0811 4.52088 12.9638 4.56619 12.8545C4.61149 12.7451 4.6779 12.6457 4.76162 12.562C4.84534 12.4783 4.94472 12.4118 5.05411 12.3665C5.16349 12.3212 5.28073 12.2979 5.39912 12.2979C5.51751 12.2979 5.63475 12.3212 5.74413 12.3665C5.85351 12.4118 5.9529 12.4783 6.03662 12.562L9.59987 16.1252L18.5631 7.16348C18.7322 6.9944 18.9615 6.89941 19.2006 6.89941C19.4397 6.89941 19.669 6.9944 19.8381 7.16348C20.0072 7.33255 20.1022 7.56187 20.1022 7.80098C20.1022 8.04008 20.0072 8.2694 19.8381 8.43848L19.8366 8.43697Z" fill="white"/>
</svg>
