<svg width="16" height="16" viewBox="0 0 16 16" fill="none" xmlns="http://www.w3.org/2000/svg">
<path d="M13.9998 7.99979C13.9998 8.1324 13.9471 8.25958 13.8533 8.35334C13.7596 8.44711 13.6324 8.49979 13.4998 8.49979H7.99979C7.86718 8.49979 7.74 8.44711 7.64624 8.35334C7.55247 8.25958 7.49979 8.1324 7.49979 7.99979C7.49979 7.86718 7.55247 7.74 7.64624 7.64624C7.74 7.55247 7.86718 7.49979 7.99979 7.49979H13.4998C13.6324 7.49979 13.7596 7.55247 13.8533 7.64624C13.9471 7.74 13.9998 7.86718 13.9998 7.99979ZM7.99979 4.49979H13.4998C13.6324 4.49979 13.7596 4.44711 13.8533 4.35334C13.9471 4.25957 13.9998 4.1324 13.9998 3.99979C13.9998 3.86718 13.9471 3.74 13.8533 3.64624C13.7596 3.55247 13.6324 3.49979 13.4998 3.49979H7.99979C7.86718 3.49979 7.74 3.55247 7.64624 3.64624C7.55247 3.74 7.49979 3.86718 7.49979 3.99979C7.49979 4.1324 7.55247 4.25957 7.64624 4.35334C7.74 4.44711 7.86718 4.49979 7.99979 4.49979ZM13.4998 11.4998H7.99979C7.86718 11.4998 7.74 11.5525 7.64624 11.6462C7.55247 11.74 7.49979 11.8672 7.49979 11.9998C7.49979 12.1324 7.55247 12.2596 7.64624 12.3533C7.74 12.4471 7.86718 12.4998 7.99979 12.4998H13.4998C13.6324 12.4998 13.7596 12.4471 13.8533 12.3533C13.9471 12.2596 13.9998 12.1324 13.9998 11.9998C13.9998 11.8672 13.9471 11.74 13.8533 11.6462C13.7596 11.5525 13.6324 11.4998 13.4998 11.4998ZM5.14604 2.64604L3.49979 4.29291L2.85354 3.64604C2.75972 3.55222 2.63247 3.49951 2.49979 3.49951C2.36711 3.49951 2.23986 3.55222 2.14604 3.64604C2.05222 3.73986 1.99951 3.86711 1.99951 3.99979C1.99951 4.13247 2.05222 4.25972 2.14604 4.35354L3.14604 5.35354C3.19248 5.40003 3.24762 5.43691 3.30832 5.46207C3.36902 5.48723 3.43408 5.50018 3.49979 5.50018C3.5655 5.50018 3.63056 5.48723 3.69126 5.46207C3.75196 5.43691 3.8071 5.40003 3.85354 5.35354L5.85354 3.35354C5.94736 3.25972 6.00007 3.13247 6.00007 2.99979C6.00007 2.86711 5.94736 2.73986 5.85354 2.64604C5.75972 2.55222 5.63247 2.49951 5.49979 2.49951C5.36711 2.49951 5.23986 2.55222 5.14604 2.64604ZM5.14604 6.64604L3.49979 8.29291L2.85354 7.64604C2.75972 7.55222 2.63247 7.49951 2.49979 7.49951C2.36711 7.49951 2.23986 7.55222 2.14604 7.64604C2.05222 7.73986 1.99951 7.86711 1.99951 7.99979C1.99951 8.06549 2.01245 8.13054 2.03759 8.19124C2.06273 8.25193 2.09958 8.30709 2.14604 8.35354L3.14604 9.35354C3.19248 9.40003 3.24762 9.43691 3.30832 9.46207C3.36902 9.48723 3.43408 9.50018 3.49979 9.50018C3.5655 9.50018 3.63056 9.48723 3.69126 9.46207C3.75196 9.43691 3.8071 9.40003 3.85354 9.35354L5.85354 7.35354C5.94736 7.25972 6.00007 7.13247 6.00007 6.99979C6.00007 6.86711 5.94736 6.73986 5.85354 6.64604C5.75972 6.55222 5.63247 6.49951 5.49979 6.49951C5.36711 6.49951 5.23986 6.55222 5.14604 6.64604ZM5.14604 10.646L3.49979 12.2929L2.85354 11.646C2.80708 11.5996 2.75193 11.5627 2.69124 11.5376C2.63054 11.5125 2.56549 11.4995 2.49979 11.4995C2.43409 11.4995 2.36904 11.5125 2.30834 11.5376C2.24764 11.5627 2.19249 11.5996 2.14604 11.646C2.09958 11.6925 2.06273 11.7476 2.03759 11.8083C2.01245 11.869 1.99951 11.9341 1.99951 11.9998C1.99951 12.0655 2.01245 12.1305 2.03759 12.1912C2.06273 12.2519 2.09958 12.3071 2.14604 12.3535L3.14604 13.3535C3.19248 13.4 3.24762 13.4369 3.30832 13.4621C3.36902 13.4872 3.43408 13.5002 3.49979 13.5002C3.5655 13.5002 3.63056 13.4872 3.69126 13.4621C3.75196 13.4369 3.8071 13.4 3.85354 13.3535L5.85354 11.3535C5.94736 11.2597 6.00007 11.1325 6.00007 10.9998C6.00007 10.8671 5.94736 10.7399 5.85354 10.646C5.75972 10.5522 5.63247 10.4995 5.49979 10.4995C5.36711 10.4995 5.23986 10.5522 5.14604 10.646Z" fill="white"/>
</svg>
