<svg width="24" height="24" viewBox="0 0 24 24" fill="none" xmlns="http://www.w3.org/2000/svg">
<g opacity="0.4">
<path d="M20.1561 20.6109C20.0915 20.7286 19.9966 20.8267 19.8812 20.8951C19.7657 20.9636 19.6341 20.9998 19.4999 21H14.9999C14.8736 21 14.7495 20.9681 14.6389 20.9073C14.5282 20.8465 14.4348 20.7587 14.3671 20.6522L10.5711 14.6869L5.05488 20.7544C4.9204 20.8988 4.73442 20.9845 4.53723 20.9927C4.34005 21.0009 4.14757 20.9311 4.00151 20.7984C3.85546 20.6657 3.76761 20.4807 3.75701 20.2836C3.74641 20.0866 3.81391 19.8933 3.94488 19.7456L9.73581 13.3706L3.86706 4.15313C3.79478 4.03973 3.75432 3.90898 3.74991 3.77458C3.74551 3.64018 3.77732 3.50707 3.84201 3.38918C3.90671 3.27129 4.00191 3.17296 4.11765 3.10449C4.23338 3.03603 4.3654 2.99993 4.49988 3H8.99988C9.1261 3.00004 9.25028 3.03194 9.3609 3.09274C9.47152 3.15353 9.565 3.24127 9.63269 3.34781L13.4286 9.31312L18.9449 3.24562C19.0793 3.10117 19.2653 3.01555 19.4625 3.00731C19.6597 2.99907 19.8522 3.06888 19.9982 3.20161C20.1443 3.33435 20.2321 3.51929 20.2427 3.71636C20.2533 3.91343 20.1858 4.10674 20.0549 4.25438L14.2639 10.6247L20.1327 19.8478C20.2046 19.9613 20.2447 20.0919 20.2488 20.2262C20.2529 20.3604 20.2209 20.4933 20.1561 20.6109Z" fill="white"/>
</g>
</svg>
